<svg width="22" height="22" viewBox="0 0 22 22" fill="none" xmlns="http://www.w3.org/2000/svg">
    <path d="M16.75 14C16.75 14.4142 16.4142 14.75 16 14.75H11C10.5858 14.75 10.25 14.4142 10.25 14C10.25 13.5858 10.5858 13.25 11 13.25H16C16.4142 13.25 16.75 13.5858 16.75 14Z" fill="#001752"/>
    <path d="M6.48014 8.42383C6.16193 8.15866 5.68901 8.20165 5.42383 8.51986C5.15866 8.83807 5.20165 9.31099 5.51986 9.57617L5.75427 9.7715C6.41283 10.3203 6.84346 10.6815 7.11966 10.9874C7.38194 11.2778 7.40693 11.414 7.40693 11.5C7.40693 11.586 7.38194 11.7222 7.11966 12.0126C6.84346 12.3185 6.41283 12.6797 5.75427 13.2285L5.51986 13.4238C5.20165 13.689 5.15866 14.1619 5.42383 14.4801C5.68901 14.7983 6.16193 14.8413 6.48014 14.5762L6.75656 14.3458C7.36151 13.8417 7.87651 13.4126 8.23293 13.0179C8.61149 12.5987 8.90693 12.1166 8.90693 11.5C8.90693 10.8834 8.61149 10.4013 8.23293 9.98209C7.87651 9.58738 7.36151 9.15826 6.75656 8.65418L6.48014 8.42383Z" fill="#001752"/>
    <path fill-rule="evenodd" clip-rule="evenodd" d="M10.9426 0.25H11.0574C13.3658 0.249987 15.1748 0.249977 16.5863 0.439747C18.031 0.633986 19.1711 1.03933 20.0659 1.93414C20.9607 2.82895 21.366 3.96897 21.5603 5.41371C21.75 6.82519 21.75 8.63423 21.75 10.9426V11.0574C21.75 13.3658 21.75 15.1748 21.5603 16.5863C21.366 18.031 20.9607 19.1711 20.0659 20.0659C19.1711 20.9607 18.031 21.366 16.5863 21.5603C15.1748 21.75 13.3658 21.75 11.0574 21.75H10.9426C8.63423 21.75 6.82519 21.75 5.41371 21.5603C3.96897 21.366 2.82895 20.9607 1.93414 20.0659C1.03933 19.1711 0.633986 18.031 0.439747 16.5863C0.249977 15.1748 0.249987 13.3658 0.25 11.0574V10.9426C0.249987 8.63423 0.249977 6.82519 0.439747 5.41371C0.633986 3.96897 1.03933 2.82895 1.93414 1.93414C2.82895 1.03933 3.96897 0.633986 5.41371 0.439747C6.82519 0.249977 8.63423 0.249987 10.9426 0.25ZM5.61358 1.92637C4.33517 2.09825 3.56445 2.42514 2.9948 2.9948C2.42514 3.56445 2.09825 4.33517 1.92637 5.61358C1.75159 6.91356 1.75 8.62178 1.75 11C1.75 13.3782 1.75159 15.0864 1.92637 16.3864C2.09825 17.6648 2.42514 18.4355 2.9948 19.0052C3.56445 19.5749 4.33517 19.9018 5.61358 20.0736C6.91356 20.2484 8.62178 20.25 11 20.25C13.3782 20.25 15.0864 20.2484 16.3864 20.0736C17.6648 19.9018 18.4355 19.5749 19.0052 19.0052C19.5749 18.4355 19.9018 17.6648 20.0736 16.3864C20.2484 15.0864 20.25 13.3782 20.25 11C20.25 8.62178 20.2484 6.91356 20.0736 5.61358C19.9018 4.33517 19.5749 3.56445 19.0052 2.9948C18.4355 2.42514 17.6648 2.09825 16.3864 1.92637C15.0864 1.75159 13.3782 1.75 11 1.75C8.62178 1.75 6.91356 1.75159 5.61358 1.92637Z" fill="#001752"/>
</svg>