<svg width="500" height="409" viewBox="0 0 500 409" fill="none" xmlns="http://www.w3.org/2000/svg">
    <path d="M129.614 333.221C103.476 333.221 148.608 278.561 176.137 291.137C175.612 277.167 186.972 271.31 196.996 280.611C215.187 229.273 305.298 214.469 299.977 283.221C302.668 281.402 324.355 274.407 320.754 298.648C344.615 303.017 374.02 333.221 349.188 333.221C324.355 333.221 155.755 333.221 129.614 333.221Z" fill="white" stroke="black" stroke-width="4.2319" stroke-miterlimit="10"/>
    <path d="M128.23 330.483C138.553 310.249 154.078 291.07 177.194 301.285C177.903 287.105 186.846 279.593 199.452 286.876C205.427 262.152 227.674 245.809 252.393 240.861C281.64 235.002 302.757 260.691 293.908 286.842C305.318 281.694 317.735 290.64 310.899 302.459C313.774 302.219 317.089 302.716 319.221 301.968C325.834 305.235 333.981 305.757 339.876 311.548C344.902 316.486 345.696 327.76 348.672 328.863" fill="#FFC893"/>
    <path d="M227.618 305.121C228.545 302.141 231.991 300.162 235.296 301.754C238.017 291.739 256.632 288.555 255.849 301.788C260.012 298.618 263.811 302.055 264.215 306.428" stroke="black" stroke-width="4.2319" stroke-miterlimit="10" stroke-linecap="round"/>
    <path d="M281.003 136.847C281.003 192.174 236.153 237.024 180.827 237.024C125.501 237.024 80.6509 192.174 80.6509 136.847C80.6509 81.5225 125.501 36.6719 180.827 36.6719C236.153 36.6719 281.003 81.5225 281.003 136.847Z" fill="#F28A2C" fill-opacity="0.984314"/>
    <path d="M418.793 340.498C414.575 326.826 398.832 305.151 381.525 321.264C384.318 307.195 366.259 293.018 360.725 307.459C360.97 304.01 359.641 300.602 359.244 297.194C354.344 295.911 350.236 298.192 348.139 302.033C348.077 288.902 339.918 275.495 324.702 282.875C313.501 288.307 312.326 303.214 309.075 313.531C302.37 305.212 293.96 310.175 293.665 320.01C287.115 306.29 271.487 293.145 254.147 303.425C247.363 307.447 244.068 312.571 242.43 318.252C236.199 314.421 228.765 314.046 221.012 321.264C223.809 307.195 205.746 293.018 200.212 307.459C200.459 304.01 199.13 300.602 198.734 297.193C193.834 295.91 189.724 298.192 187.626 302.033C187.567 288.901 179.407 275.495 164.189 282.875C152.989 288.307 151.813 303.214 148.562 313.531C141.859 305.211 133.451 310.175 133.152 320.01C126.605 306.29 110.977 293.145 93.6362 303.425C75.7525 314.026 82.0817 332.277 79.2518 348.229C70.7757 339.188 56.5002 344.463 65.3819 354.783H437.771C435.588 346.147 432.543 324.778 418.793 340.498Z" fill="white" stroke="black" stroke-width="4.2319" stroke-miterlimit="10"/>
    <path d="M437.771 354.783C443.748 354.783 445.898 350.204 452.598 349.189C456.225 348.64 460.133 355.021 464.242 354.783C469.364 354.49 471.453 355.25 475.996 352.22" stroke="black" stroke-width="4.2319" stroke-miterlimit="10"/>
    <path d="M65.3814 354.784C55.269 354.784 43.1647 361.311 31.5128 354.784" stroke="black" stroke-width="4.2319" stroke-miterlimit="10"/>
    <path d="M155.41 327.762C157.49 322.18 165.841 319.684 166.799 327.459C173.233 315.431 191.265 329.028 182.425 340.805" stroke="black" stroke-width="4.2319" stroke-miterlimit="10"/>
    <path d="M315.644 335.215C314.629 332.336 314.427 330.589 317.763 328.835C318.663 329.475 320.127 329.829 321.046 330.465C321.148 321.595 334.214 318.545 333.488 328.623C339.701 323.245 353.413 328.239 345.455 335.215" stroke="black" stroke-width="4.2319" stroke-miterlimit="10"/>
    <path d="M240.185 341.736C240.609 337.595 242.803 337.064 246.007 339.546C249.755 332.51 256.285 333.766 260.68 338.94" stroke="black" stroke-width="4.2319" stroke-miterlimit="10"/>
    <path d="M92.9917 338.94C93.4221 334.262 97.5026 333.19 101.141 336.002C105.364 327.848 111.979 333.123 115.35 338.01" stroke="black" stroke-width="4.2319" stroke-miterlimit="10"/>
    <path d="M219.912 373.902C219.912 378.414 202.722 382.072 181.52 382.072C160.317 382.072 143.129 378.414 143.129 373.902C143.129 369.39 160.316 365.733 181.52 365.733C202.722 365.733 219.912 369.39 219.912 373.902Z" fill="#FFC893"/>
    <path d="M313.148 363.931C313.148 366.546 304.358 368.665 293.515 368.665C282.672 368.665 273.882 366.546 273.882 363.931C273.882 361.317 282.672 359.198 293.515 359.198C304.358 359.198 313.148 361.317 313.148 363.931Z" fill="#FFC893"/>
    <path d="M227.795 152.064L234.381 168.447C234.381 168.447 224.353 181.189 208.558 168.447C196.381 158.622 187.498 124.886 187.498 124.886L191.486 123.508C191.486 123.508 214.938 161.372 227.795 152.064Z" fill="white" stroke="black" stroke-width="2.8213" stroke-miterlimit="10"/>
    <path d="M187.664 125.497C187.664 125.497 181.021 117.675 180.835 115.737C180.655 113.796 183.237 111.177 184.361 112.394C185.487 113.611 190.366 118.854 190.882 119.677C191.657 120.902 191.875 123.725 192.407 124.946" fill="white"/>
    <path d="M187.664 125.497C187.664 125.497 181.021 117.675 180.835 115.737C180.655 113.796 183.237 111.177 184.361 112.394C185.487 113.611 190.366 118.854 190.882 119.677C191.657 120.902 191.875 123.725 192.407 124.946" stroke="black" stroke-width="2.8213" stroke-miterlimit="10" stroke-linecap="round"/>
    <path d="M190.89 273.193C193.642 275.798 201.548 280.355 203.657 278.962C206.926 276.804 190.833 242.441 181.365 254.338C179.449 256.743 182.656 265.392 190.89 273.193Z" fill="black"/>
    <path d="M182.486 253.828C174.387 266.393 169.779 353.939 169.779 353.939L179.106 357.377C179.106 357.377 191.584 305.046 195.004 294.04C199.452 279.737 200.243 264.277 200.243 264.277" fill="white"/>
    <path d="M182.486 253.828C174.387 266.393 169.779 353.939 169.779 353.939L179.106 357.377C179.106 357.377 191.584 305.046 195.004 294.04C199.452 279.737 200.243 264.277 200.243 264.277" stroke="black" stroke-width="2.8213" stroke-miterlimit="10"/>
    <path d="M176.917 370.932C176.917 370.932 153.16 370.108 148.245 368.826C145.215 368.034 147.572 364.942 151.604 364.916C160.122 364.867 169.78 353.939 169.78 353.939L179.107 357.377L176.917 370.932Z" fill="black"/>
    <path d="M240.672 264.439C252.133 297.738 337.093 266.403 337.093 266.403L336.344 258.869C336.344 258.869 286.549 258.689 275.965 258.869C259.399 259.152 252.089 263.629 252.089 263.629" fill="white"/>
    <path d="M240.672 264.439C252.133 297.738 337.093 266.403 337.093 266.403L336.344 258.869C336.344 258.869 286.549 258.689 275.965 258.869C259.399 259.152 252.089 263.629 252.089 263.629" stroke="black" stroke-width="2.8213" stroke-miterlimit="10"/>
    <path d="M344.853 255.568C344.853 255.568 356.22 276.446 357.613 281.33C358.472 284.344 354.611 283.884 352.539 280.423C348.167 273.115 336.25 266.289 336.25 266.289L334.744 258.87L344.853 255.568Z" fill="black"/>
    <path d="M269.205 213.952C267.987 242.516 269.737 258.789 269.737 258.789C269.737 258.789 268.903 271.009 245.647 276.14C238.509 260.188 221.587 234.003 222.754 214.179L269.205 213.952Z" fill="#0053A0" stroke="black" stroke-width="2.8213" stroke-miterlimit="10"/>
    <path d="M237.069 258.949L242.348 269.277L256.409 239.616L237.069 258.949Z" fill="black"/>
    <path d="M227.828 183.029C224.641 186.438 220.704 201.944 218.887 209.479C207.814 222.825 182.261 251.434 181.365 254.338C180.467 257.241 196.601 260.441 203.657 278.962C209.292 279.207 266.302 245.046 269.205 213.952C270.242 202.856 266.005 195.879 263.366 187.432C254.109 185.403 234.685 179.902 227.828 183.029Z" fill="#0053A0"/>
    <path d="M269.205 213.952C269.205 213.952 269.736 198.834 263.366 187.432C254.109 185.403 234.686 179.902 227.828 183.029C224.641 186.438 220.704 201.944 218.887 209.479C207.815 222.825 182.262 251.434 181.365 254.338C180.467 257.241 196.601 260.441 203.657 278.962C206.483 279.085 227.006 269.413 245.978 250.97C249.553 247.494 259.873 238.068 264.461 228.35" stroke="black" stroke-width="2.8213" stroke-miterlimit="10" stroke-linecap="round"/>
    <path d="M266.499 192.55C263.663 200.415 226.764 199.386 223.836 191.616C221.627 185.746 223.315 152.012 223.315 148.546C223.316 133.017 223.952 121.462 228.272 119.07C232.593 116.678 248.157 116.225 252.809 118.321C254.959 119.29 261.831 122.837 263.373 124.512C270.708 132.482 266.028 144.144 265.104 156.503C262.695 188.697 268.598 186.729 266.499 192.55Z" fill="#D9E2ED" stroke="black" stroke-width="2.8213" stroke-miterlimit="10"/>
    <path d="M233.696 113.123L234.266 115.752L228.272 119.07C228.272 119.07 230.257 133.682 237.871 133.883C245.487 134.083 252.809 118.321 252.809 118.321L245.916 114.34L245.223 111.197C245.223 111.197 248.645 105.409 249.894 99.953C251.259 94.0267 250.441 92.4343 249.894 85.8349C249.22 77.5222 239.228 78.0199 239.228 78.0199L229.37 80.1295C229.37 80.1295 226.116 80.5111 225.009 82.9211C224.07 84.9749 223.85 87.6058 223.462 90.8745C222.86 95.9364 224.309 102.42 224.294 106.205C224.274 110.429 227.277 112.563 229.425 112.752C231.57 112.939 233.696 113.123 233.696 113.123Z" fill="white" stroke="black" stroke-width="2.8213" stroke-miterlimit="10"/>
    <path d="M244.14 75.0249C249.038 76.3761 251.543 82.0513 252.474 86.135C256.132 102.177 245.223 111.197 245.223 111.197C245.223 111.197 245.689 108.178 246.265 105.553C247.395 100.414 245.177 98.1371 245.177 98.1371C245.177 98.1371 243.388 102.595 242.049 99.5826C241.7 98.7984 243.182 96.6441 240.094 95.0407C242.882 90.9391 236.598 87.1854 231.772 87.4855C228.336 87.6997 227.118 90.6388 223.514 89.7376C219.489 88.7312 219.414 81.0309 224.867 79.0781C230.318 77.1277 240.572 74.0405 244.14 75.0249Z" fill="black"/>
    <path d="M244.159 100.26C244.299 102.535 245.588 102.026 247.205 101.926C248.827 101.826 250.025 99.8995 249.881 97.6247C249.74 95.3504 247.882 94.9095 246.263 95.007C244.642 95.1045 244.017 97.9885 244.159 100.26Z" fill="white"/>
    <path d="M233.696 112.844C239.017 112.215 242.149 109.191 242.149 109.191C242.149 109.191 239.232 113.426 234.266 115.039C233.889 113.435 233.696 112.844 233.696 112.844Z" fill="black"/>
    <path d="M218.887 209.479C223.992 202.87 228.788 199.924 228.788 199.924" stroke="black" stroke-width="2.8213" stroke-miterlimit="10" stroke-linecap="round" stroke-linejoin="round"/>
    <path d="M251.291 143.491C251.291 151.794 254.42 157.391 258.498 157.391C262.577 157.391 266.955 152.115 268.106 143.892C269.507 133.884 266.505 126.07 262.041 123.297C258.577 121.145 251.291 135.188 251.291 143.491Z" fill="white" stroke="black" stroke-width="2.8213" stroke-miterlimit="10"/>
    <path d="M259.096 152.841C292.325 157.476 304.212 198.553 304.212 198.553L308.427 198.351C308.427 198.351 305.924 174.825 294.528 156.597C283.763 139.382 261.097 125.169 261.097 125.169" fill="white"/>
    <path d="M259.096 152.841C292.325 157.476 304.212 198.553 304.212 198.553L308.427 198.351C308.427 198.351 305.924 174.825 294.528 156.597C283.763 139.382 261.097 125.169 261.097 125.169" stroke="black" stroke-width="2.8213" stroke-miterlimit="10"/>
    <path d="M308.383 197.969C308.383 197.969 312.618 207.09 312.25 209.004C311.879 210.916 308.665 212.706 307.926 211.221C307.188 209.737 303.982 203.335 303.715 202.398C303.318 201.005 304.073 198.897 303.904 197.576" fill="white"/>
    <path d="M308.383 197.969C308.383 197.969 312.618 207.09 312.25 209.004C311.879 210.916 308.665 212.706 307.926 211.221C307.188 209.737 303.982 203.335 303.715 202.398C303.318 201.005 304.073 198.897 303.904 197.576" stroke="black" stroke-width="2.8213" stroke-miterlimit="10" stroke-linecap="round"/>
</svg>