<svg width="100" height="40" viewBox="0 0 100 40" fill="none" xmlns="http://www.w3.org/2000/svg">
    <path d="M31.6682 3.24404C31.6682 2.34248 32.3991 1.61163 33.3006 1.61163V1.61163C34.2022 1.61163 34.933 2.34249 34.933 3.24404V37.8531C34.933 38.7546 34.2022 39.4855 33.3006 39.4855V39.4855C32.3991 39.4855 31.6682 38.7546 31.6682 37.8531V3.24404Z" fill="#303030"/>
    <path d="M31.2269 2.47397C31.829 1.7752 33.0145 1.47852 33.8748 1.8113V1.8113C34.7351 2.14409 34.9444 2.98033 34.3422 3.6791L4.20555 38.653C3.60343 39.3518 2.41792 39.6484 1.55764 39.3157V39.3157C0.697361 38.9829 0.488083 38.1466 1.09021 37.4479L31.2269 2.47397Z" fill="#303030"/>
    <rect x="63.6637" y="0.805817" width="3.26481" height="37.988" rx="1.6324" fill="#303030"/>
    <path d="M63.3337 1.66816C63.9358 0.969387 65.1213 0.672701 65.9816 1.00549V1.00549C66.8419 1.33827 67.0512 2.17452 66.4491 2.87328L35.5475 38.7348C34.9454 39.4335 33.7599 39.7302 32.8996 39.3974V39.3974C32.0393 39.0647 31.8301 38.2284 32.4322 37.5296L63.3337 1.66816Z" fill="#303030"/>
    <rect x="96.6384" y="0.805847" width="3.26481" height="37.988" rx="1.6324" fill="#303030"/>
    <rect width="3.34032" height="26.1377" rx="1.67016" transform="matrix(0.93265 -0.360783 0.652776 0.757551 79.822 19.5714)" fill="#303030"/>
    <path d="M95.6556 1.26523C96.2577 0.566464 97.4432 0.269777 98.3035 0.602564V0.602564C99.1638 0.935351 99.3731 1.77159 98.771 2.47036L67.8694 38.3318C67.2673 39.0306 66.0818 39.3273 65.2215 38.9945V38.9945C64.3612 38.6617 64.152 37.8255 64.7541 37.1267L95.6556 1.26523Z" fill="#303030"/>
</svg>
